<svg viewBox="0 0 500 500" xmlns="http://www.w3.org/2000/svg"><path d="M420.544 220.653v-45.396h-32.469v45.396h-46.755v32.426h46.755v46.693h32.469v-46.693h45.456v-32.426h-45.456zm-236.371-2.594v51.881s50.396-.067 70.917-.067c-11.112 33.633-28.391 51.949-70.917 51.949-43.036 0-76.626-34.842-76.626-77.822 0-42.98 33.589-77.822 76.626-77.822 22.754 0 37.449 7.987 50.929 19.12 10.79-10.776 9.889-12.311 37.34-38.201-23.303-21.183-54.276-34.096-88.269-34.096-72.445 0-131.173 58.65-131.173 131 0 72.348 58.728 131 131.173 131 108.285 0 134.752-94.164 125.978-156.941h-125.978z" fill="#101010"/></svg>