<svg xmlns="http://www.w3.org/2000/svg" viewBox="0 0 500 500" enable-background="new 0 0 500 500">
    <path fill="#101010" d="M408.07 163.333v10.365c0 107.974-82.057 231.493-231.485 231.493-46.656 0-88.967-12.955-125.25-36.283 6.045.866 12.955.866 19.865.866 37.998 0 73.415-12.955 101.056-34.551-35.417-.866-65.639-24.186-76.013-57.005 4.329 1.724 9.508 1.724 14.686 1.724 7.776 0 14.686-.866 21.596-2.589-37.148-7.776-64.789-40.596-64.789-80.334v-.866c10.373 6.052 23.328 9.508 36.283 10.373-21.596-14.686-36.283-39.738-36.283-68.245 0-14.678 4.329-28.499 11.239-40.596 40.596 49.237 100.191 82.057 168.427 84.646-1.716-5.179-2.582-12.089-2.582-18.134 0-44.916 36.283-81.199 82.057-81.199 23.328 0 44.043 9.5 58.729 25.052 19.015-3.455 36.283-10.365 51.835-18.999-6.045 18.999-18.999 34.551-35.417 44.909 16.418-2.589 31.954-6.91 46.64-12.955-11.223 16.418-25.044 30.238-40.596 42.327z"/>
</svg>