<svg xmlns="http://www.w3.org/2000/svg" viewBox="0 0 500 500" enable-background="new 0 0 500 500"><path fill="#101010" d="M115.754 139.644c-23.024 0-38.36-16.873-38.36-36.822 0-20.711 15.336-36.822 39.115-36.822 23.793 0 38.36 16.111 39.129 36.822 0 19.949-15.336 36.822-39.884 36.822zm-36.067 29.147h73.644v237.044h-73.644v-237.044zm115.835 0h63.677l3.844 32.992h1.524c9.213-15.343 32.992-38.36 72.875-38.36 49.096 0 85.163 32.223 85.163 102.03v140.383h-73.644v-131.177c0-30.685-10.75-51.396-37.591-51.396-19.949 0-32.223 13.805-37.591 27.617-2.307 4.599-2.307 11.505-2.307 18.411v136.545h-74.413v-161.093c0-29.916-.769-54.464-1.538-75.951z"/></svg>