<?xml version="1.0" encoding="utf-8"?>
<!-- Generator: Adobe Illustrator 19.1.0, SVG Export Plug-In . SVG Version: 6.00 Build 0)  -->
<svg version="1.1" id="Layer_1" xmlns="http://www.w3.org/2000/svg" xmlns:xlink="http://www.w3.org/1999/xlink" x="0px" y="0px"
	 viewBox="0 0 919.7 216.2" style="enable-background:new 0 0 919.7 216.2;" xml:space="preserve">
<style type="text/css">
	.st0 {fill: #fff;}
</style>
<g>
	<g>
		<g id="fWHzuN.tif_1_">
			<g>
				<path class="st0" d="M878.5,117c1.5,4.1,2.9,7.6,4,11.2c3.9,11.9,7.6,23.9,11.7,35.8c1.6,4.8,2.8,5.4,7.3,2.9
					c5.3-3.1,10.3-6.7,15.1-10.6c4.4-3.6,4.2-4.4-0.8-7.1c-4.4-2.4-8.2-5.2-10.4-9.9c-5-11-10-22.1-15.1-33.1
					c-1.7-3.6-1-6.7,1.3-9.7c6.9-9,13.8-18.1,20.7-27.2c1.2-1.6,2.4-3.1,3.6-4.6c-0.5-0.4-0.7-0.7-0.8-0.7c-0.7-0.1-1.5-0.1-2.2,0
					c-10.2,0.8-20.1,3.4-29.7,6.9c-5.3,2-5.4,2.5-2.9,7.6c0.5,1.2,1.1,2.3,1.6,3.5c1.8,3.5,1.6,6.8-0.7,10.2
					c-4.9,7.2-9.7,14.5-14.5,21.8c-0.5,0.8-1.3,1.3-2.3,2.4c-0.2-1.1-0.3-1.5-0.3-1.9c0.1-13-0.2-26,0.5-39
					c1-18.2,2.6-36.3,4.2-54.5c0.3-3.4-0.9-5.4-3.6-7.1c-7.8-5-16.2-8.5-25-11c-1-0.3-2.2-0.1-4.4-0.2c2.6,5.5,4.4,10.4,7,14.8
					c3.5,5.7,4.6,11.8,4.7,18.3c0.4,26.6,0.9,53.3,1.3,79.9c0.1,5.1-0.2,10.2-0.7,15.3c-1.1,10.6-2.4,21.2-3.6,31.7
					c-0.3,2.7,0.9,3.6,3.3,3c5-1.2,10.2-2.3,15.1-3.9c4.4-1.4,4.3-2,3.8-6.6c-2.7-22.5-4.6-16.1,7.5-33.5c0.5-0.7,1-1.4,1.6-2
					C876.6,118.7,877.3,118.1,878.5,117z"/>
				<path class="st0" d="M585.8,1.4c0.5,2,0.7,3.3,1.2,4.4c1.7,3.7,3.1,7.5,5.3,10.9c3.5,5.6,4.6,11.6,4.7,18
					c0.4,26.6,1,53.3,1.2,79.9c0.1,7-0.7,14-1.4,21c-0.8,8.8-1.9,17.6-2.9,26.4c-0.2,2.1,0.4,3.5,2.8,2.9c5.7-1.4,11.3-2.9,16.9-4.5
					c2.5-0.7,3.1-2.5,2.7-5c-0.6-3.4-1.3-6.7-1.5-10.1c-0.2-3.9-1.1-8.3,0.4-11.5c2.6-5.5,6.7-10.3,10.3-15.3c0.4-0.6,1.3-1,2.4-1.8
					c1.4,4,2.8,7.5,4,11.1c4,12.2,8.1,24.4,12,36.6c1,2.9,2.7,3.8,5.6,2.6c7.1-3.1,13.2-7.7,18.5-13.3c1.4-1.5,1-2.6-0.6-3.6
					c-1.2-0.7-2.3-1.6-3.6-2.1c-4.3-2-7.3-5.1-9.2-9.3c-5-11-10-22.1-15-33.1c-1.6-3.5-1-6.4,1.3-9.4c7.7-10,15.2-20,22.8-30
					c0.5-0.7,1-1.4,1.5-2.2c-0.1-0.3-0.3-0.6-0.4-0.9c-3,0.3-6.1,0.3-9,1.1c-8.4,2.1-16.8,4.6-25.1,6.9c-2.7,0.8-3.1,2.5-1.9,4.9
					c1,2,1.8,4.1,2.7,6.1c1.6,3.2,1.3,6-0.7,9c-5,7.4-9.9,14.9-14.8,22.4c-0.5,0.7-1.2,1.3-2.2,2.4c-0.2-1.3-0.4-1.9-0.4-2.5
					c0.1-12.9-0.2-25.8,0.5-38.7c1-18.2,2.7-36.3,4.2-54.5c0.3-3.2-0.7-5.5-3.4-6.8c-7.2-3.5-14.5-6.9-21.9-10.2
					C590.8,2.2,588.5,2,585.8,1.4z"/>
				<path class="st0" d="M398,0.4c-0.4,0.4-0.7,0.8-1.1,1.1c2.7,5.6,5.5,11.2,8,16.9c0.9,2.1,1.8,4.4,2,6.6c1.1,15,2.7,30,2.7,44.9
					c0.1,18.2-1.3,36.4-1.9,54.6c-0.4,11.7-0.6,23.4-1,35.1c-0.1,2.6,0.6,4.6,3,5.9c5.9,3.4,12.3,5.1,19.1,5.6
					c2,0.1,2.7-0.8,2.5-2.7c-1.1-11.2-2.2-22.5-3.2-33.7c-1.3-14.1-2.7-28.2-1.8-42.4c1.4-23.9,2.4-47.9,3.6-71.8
					c0.2-3.5-0.8-6-4-7.6c-7.1-3.6-14.2-7.3-21.4-10.7C402.5,1.3,400.1,1,398,0.4z"/>
				<path class="st0" d="M442.7,24.4c-0.3,0.3-0.6,0.5-1,0.8c1.9,5.9,3.5,12,5.7,17.8c3,7.9,5.7,15.7,5,24.4c-0.7,8.2,0,6.7-6.7,6.9
					c-1.1,0-2.9,0.8-3,1.4c-0.8,4.9-1.2,9.8-1.8,15c3.8,0,6.8,0,10.2,0c-0.4,4.6-0.9,9-1.2,13.3c-1.3,16.7-2.5,33.4-3.6,50
					c-0.1,1.9,0.3,4.2,1.3,5.8c3.2,4.9,6.8,9.5,10.2,14.2c1.7,2.4,4,2.8,6.4,1.1c5.7-4.2,11.3-8.6,17-12.9c0.5-0.4,0.7-1,1.2-1.8
					c-3.3-1.6-6.4-3.2-9.5-4.7c-3-1.5-4.4-3.9-4.9-7.3c-2.3-17.3-3-34.6-2.2-52c0.4-8.4-1.1-7.1,7.8-7.8c1.2-0.1,3-0.3,3.4-1.1
					c2.3-4.1,4.2-8.5,6.5-13.2c-1.5-0.1-2.5-0.3-3.5-0.3c-3,0-6,0-8.9,0.3c-2.7,0.2-3.6-0.7-3.2-3.4c1.2-8.7,2.1-17.5,3.5-26.3
					c0.6-3.9-0.8-6.5-3.8-8.7c-6.6-4.8-13.7-8.5-21.5-11C445,24.6,443.8,24.5,442.7,24.4z"/>
				<path class="st0" d="M668.5,24.8c2.2,6.9,3.8,12.9,6,18.8c3,7.9,5.7,15.7,4.9,24.4c-0.6,6.5-0.2,6.6-6.8,6.7
					c-2.1,0-3.2,0.7-3.3,2.9c-0.3,3.9-0.8,7.8-0.9,11.8c0,0.6,1.2,1.8,2,1.9c2.4,0.2,4.8,0.1,7.7,0.1c-0.4,4.5-0.8,8.8-1.1,13.1
					c-1.3,16.7-2.6,33.3-3.7,50c-0.1,1.9,0.2,4.2,1.2,5.8c3.2,5,6.9,9.7,10.4,14.5c1.8,2.4,4.1,2.7,6.4,1
					c5.6-4.2,11.2-8.4,16.7-12.7c0.5-0.4,0.8-1.2,1.3-2c-3.4-1.7-6.6-3.3-9.8-4.9c-2.7-1.4-4-3.5-4.4-6.5c-2.4-17.6-3.1-35.3-2.2-53
					c0.4-7.8-1.2-6.7,7.5-7.4c1.2-0.1,3-0.2,3.5-0.9c2.3-4.2,4.3-8.6,6.7-13.5c-4.4,0-8.2-0.1-12,0c-4,0-4.1,0.1-3.6-3.8
					c1.1-8.7,2.1-17.3,3.4-26c0.6-3.8-0.7-6.3-3.6-8.5c-6.6-4.9-13.9-8.6-21.8-11.1C672,25,670.8,25.1,668.5,24.8z"/>
				<path class="st0" d="M542.9,113.4c0.5-5.6-0.2-11.2,3.5-16c3.6-4.5,6.9-9.2,10.9-13.4c5.7-6.1,7.8-5.6,10,2.6
					c1.6,5.9,2.7,12,3.8,18.1c0.4,2.2,1.5,2.9,3.4,3c2.2,0.2,3.7-0.9,4.4-2.9c2.5-7.5,4.9-15.1,7.4-22.7c0.8-2.5,0-4.4-2.2-5.7
					c-4-2.3-8.1-4.6-12.2-6.8c-5-2.7-9.9-2.3-14.8,0.6c-10,5.8-18.9,13-26.9,21.4c-4.8,5-6.8,10.6-5.6,17.4c0.2,1.1,0.4,2.3,0.6,3.5
					c2.2,13.6,5.7,26.8,11.5,39.4c1.8,3.8,4.2,7,8.4,8.2c4.8,1.4,9.5,3,14.4,3.9c2.2,0.4,5.4,0.1,6.8-1.2c9.8-9,17.1-19.8,20.8-32.7
					c0.3-1-0.5-3-1.3-3.6c-0.8-0.5-2.8,0-3.7,0.7c-3.1,2.6-5.7,5.7-8.8,8.4c-6,5.1-12.7,9-21,8.9c-4.5,0-5.3-0.5-5.9-4.9
					C544.9,131,544,122.2,542.9,113.4z"/>
				<path class="st0" d="M793.6,114c0.5-5.6-0.2-11.2,3.6-16c3.5-4.4,6.8-9,10.6-13.2c5.9-6.4,8-5.9,10.2,2.7
					c1.6,5.8,2.6,11.8,3.7,17.8c0.4,2.2,1.6,2.8,3.4,3c2.2,0.2,3.7-1,4.4-3c2.5-7.5,4.9-15.1,7.4-22.7c0.8-2.5-0.1-4.4-2.2-5.7
					c-4-2.3-8.1-4.6-12.2-6.8c-5-2.7-9.9-2.3-14.8,0.6c-10,5.8-18.9,13-26.9,21.5c-4.8,5-6.8,10.6-5.5,17.4c0.2,1.2,0.4,2.3,0.6,3.5
					c2.2,13.6,5.7,26.8,11.5,39.4c1.8,3.8,4.2,7,8.4,8.2c4.8,1.4,9.5,3,14.4,3.9c2.2,0.4,5.4,0.1,6.8-1.2c9.8-9,17.1-19.8,20.8-32.7
					c0.3-1-0.5-3-1.4-3.5c-0.9-0.5-2.8,0-3.7,0.8c-3.1,2.6-5.7,5.7-8.8,8.4c-6,5.1-12.7,9-21,8.9c-4.4,0-5.3-0.5-5.9-4.9
					C795.7,131.5,794.7,122.7,793.6,114z"/>
				<path class="st0" d="M495.6,164.9c0,0.1,0,0.2,0,0.3c4.7-0.7,9.5-1.3,14.2-2.2c7.1-1.4,7.2-1.6,5.7-8.8
					c-2.5-12.2-4.2-24.5-2.8-37.1c1.6-14.4,2.6-28.8,3.8-43.3c0.3-3.7,0-4.4-3.4-3.6c-8.1,1.8-16,4.1-24,6.3c-2.3,0.6-3,2.2-1.6,4.4
					c1.2,2,2.2,4.1,3.5,6.1c2.6,3.9,3.8,8.2,3.8,13c0.1,9.3,0.5,18.5,0.3,27.8c-0.1,5.5-0.8,11-1.7,16.4c-0.8,5.1-2.3,10.1-3.5,15.2
					c-1.2,5.5-0.8,5.9,4.7,5.6C495,165,495.3,165,495.6,164.9z"/>
				<path class="st0" d="M497.8,53.7c5.9-1.7,11.2-3.2,16.4-4.9c3.4-1.1,3.8-2.2,1.4-5c-2.7-3.2-3.3-6.7-3.1-10.6
					c0.1-1.3,0-2.6,0-3.8c0-1.9-0.8-2.9-2.7-2.2c-5.4,2.1-10.8,4.2-16.2,6.4c-0.7,0.3-1.7,1.5-1.6,2.1c0.5,4.9,1.1,9.9,2.1,14.7
					C494.4,51.6,496.4,52.5,497.8,53.7z"/>
				<path class="st0" d="M194.6,134.7c0,3.5,0.4,6.4-0.1,9.2c-1.3,7.7,2.8,13.2,7.2,18.7c1.6,1.9,3.3,1.9,4.8,0.1
					c3.1-3.4,6.3-6.7,9-10.3c4.4-5.8,4.3-6-1.1-10.7c-3.4-3-5.5-6.3-4.8-11.1c0.8-5.9,1-11.9,1.7-17.8c1.7-13.4,3.5-26.8,5.3-40.2
					c0.3-2.4-0.4-3.6-2.8-3c-5.5,1.3-10.9,2.7-16.3,4.2c-2.3,0.6-3.2,2.4-3.2,4.9c0.1,5.5,0,11.1,0.1,16.6c0.1,4.9,1.1,10,0.2,14.7
					c-2,10.6-7.4,19.8-14,28.3c-1.3,1.7-2.8,1.7-4.3,0.2c-5.1-4.7-9.3-9.8-6.9-17.5c0.4-1.2,0.3-2.5,0.5-3.8
					c1.6-11.1,3.1-22.1,4.8-33.2c0.5-3.5-0.2-6.3-3.4-8.2c-7-4.1-13.9-8.1-21-12.1c-1.2-0.6-2.7-0.6-5-1c1.7,5.5,2.8,10.4,4.8,14.8
					c3,6.8,4,13.7,3.8,21.1c-0.4,11.3-0.2,22.6-0.1,33.9c0,3.6-0.1,7.6,1.4,10.7c4,7.9,9.9,14.6,16.9,20.1c1.8,1.4,3.6,1.4,5-0.5
					c2.4-3.2,4.8-6.2,6.9-9.6C187.4,147.2,190.8,141.2,194.6,134.7z"/>
				<path class="st0" d="M220.8,64.9c0.8,2.3,1.2,4.1,2.1,5.8c3,6,6.2,11.9,9.2,17.9c0.6,1.3,1.2,2.8,1.1,4.2
					c-0.6,12.3-1.5,24.7-2.2,37c-0.6,11.3-1.3,22.5-1.8,33.8c-0.2,3.8,0.6,4.3,4.4,3.3c3.7-1,7.4-2.1,10.9-3.5
					c7.6-3.1,7.7-3.6,7-11.9c-0.5-5.7-1.7-11.6-0.9-17.1c2.2-15.2,7.6-29.6,13.9-43.6c4.4-9.8,5.6-10,14.8-4.3
					c2.2,1.4,4.5,2.6,7.2,4.2c0.3-1.9,0.7-3.1,0.7-4.3c-0.1-3,0-6.1-0.8-8.9c-1.5-5.3-3.2-10.6-5.5-15.5c-1.8-3.9-3.8-3.9-7-1.1
					c-1.5,1.3-2.9,2.8-4.3,4.3c-8.2,9.2-13.1,20.3-18.1,31.4c-0.8,1.8-1.6,3.5-2.3,5.3c-0.3-0.1-0.7-0.2-1-0.2c0-1.1,0-2.2,0-3.3
					c-0.1-7.5,0-14.9-0.3-22.4c-0.1-1.5-1.2-3.8-2.4-4.3c-6.9-2.4-13.9-4.5-20.9-6.5C223.5,64.6,222.4,64.9,220.8,64.9z"/>
				<path class="st0" d="M173.9,54.8c-1.3-3.4-0.2-5.5,2-7.4c1-0.9,2.1-3.1,1.7-3.7c-2.4-3.4-4.8-7.1-8.1-9.4
					c-1.3-0.9-5.1,1.3-7.6,2.4c-1.6,0.7-2.9,2.1-4.3,3.2c-1.6,1.3-2.1,2.9-1,4.8c1.9,3.2,3.7,6.4,5.7,9.5c0.4,0.6,1.3,1.4,1.9,1.3
					C167.3,55.4,170.4,55,173.9,54.8z"/>
				<path class="st0" d="M210.5,46c-0.9-2.5-1.2-4.4-2.2-6.1c-0.5-0.8-2.1-1.7-2.9-1.5c-2.8,0.7-4.6-0.2-6.4-2.2
					c-0.7-0.8-3-1.3-3.4-0.8c-2.5,2.6-5.3,5.3-6.8,8.6c-0.7,1.5,1.3,4.4,2.6,6.4c3.8,6,9.8,6.5,14.8,1.3
					C207.9,49.9,209.2,47.8,210.5,46z"/>
				<path class="st0" d="M0,22.9c7.8-5,16.4-7.8,25.4-9.9c2.4-0.6,2.9,0.5,3,2.6c1.7,29.4,5.2,58.5,9.9,87.6c0.8,4.9,2,9.8,3.1,14.7
					c0.3,1.3,1,2.5,1.8,4.6c1.1-2.1,2-3.4,2.5-4.8c9.1-26.3,16.9-53.1,23.4-80.2c0.6-2.6,1.6-4.3,4.5-4.6c6.9-0.7,13.7-1.6,20.6-2.4
					c2.2-0.3,3,0.7,2.9,3c-0.7,28.5,3.7,56.4,10.2,84.1c0.6,2.5,1.6,4.9,2.5,7.4c0.4,0,0.8,0,1.2,0.1c0.5-1.3,1.2-2.5,1.5-3.8
					c2.8-14.5,5.7-29,8.3-43.6c1.7-9.5,3.2-19.1,4-28.8c0.5-6.3-0.5-12.7-0.8-19.1c-0.2-3.8-0.5-7.7-0.8-11.5
					c-0.2-2.2,0.7-3.6,2.8-4.5c8.7-3.6,17.7-6.2,27.1-7.1c4.4-0.4,5.4,0.8,4.3,5.1c-10.1,37.5-19.9,75-30.4,112.4
					c-2.9,10.4-3.6,20.6-3,31.2c0.3,5.1,0.1,5.4-4.7,6.9c-8.6,2.6-17.4,4.9-26.1,7.1c-3.7,0.9-4.4,0-4-3.7c0.5-5,1.7-10,1.4-14.9
					c-0.4-7.9-1.4-15.9-3-23.7c-2.8-13.4-6.2-26.7-9.4-40.1c-0.2-1-0.7-1.9-1.3-3.6c-1.2,1.5-2,2.4-2.6,3.4
					c-7.9,15.5-14.9,31.3-20,47.9c-1.1,3.6,0,8,0.2,12c0.1,2.7,0.7,5.3,0.7,7.9c0,1.1-0.9,3-1.8,3.2c-8.9,2.7-17.9,5.2-26.9,7.7
					c-0.8,0.2-1.8-0.1-2.7-0.1c0.6-7.6,1-14.9,1.8-22.2c1.2-9.9-0.5-19.2-3.1-28.9c-7.8-29-14.7-58.4-21.9-87.5
					c-0.1-0.3-0.3-0.5-0.5-0.8C0,25,0,24,0,22.9z"/>
				<path class="st0" d="M288.8,186.1c0.5-3,0.8-6.1,1.7-9c3.5-10.7,5.8-21.5,6.5-32.7c1-16.7,2.4-33.4,3.6-50.1
					c0.1-1.3,0-2.5,0-4.2c-2.2,0-4.2-0.1-6.1,0c-2.2,0.2-3.2-0.7-3.1-2.9c0.1-3.4,0.2-6.8,0.2-10.2c0-2.5,1.2-3.3,3.5-3.4
					c6.1-0.1,6.1-0.2,6.2-6.4c0-1.7-0.1-3.4,0-5.1c1-12.3-0.7-24.1-5.2-35.6c-2-5-1.6-5.6,3.1-8.5c12.1-7.5,24.8-13.5,38.5-17.4
					c0.3-0.1,0.5-0.3,0.8-0.4c0.4,0,0.9,0,1.3,0c2.4,1.3,5.8,1,7.2,4.6c-1.7,1.2-3.6,2.2-5.2,3.6c-5,4.1-9.9,8.4-14.9,12.5
					c-5.3,4.3-7.8,9.8-8.2,16.6c-0.6,10.6-1.5,21.2-2.1,31.9c-0.3,4.6-0.1,4.6,4.3,4.6c3.6,0,7.2,0,10.9,0c1,0,2,0.2,3.7,0.3
					c-2.6,4.7-4.8,8.8-7.2,12.9c-0.3,0.6-1.6,0.8-2.5,0.8c-2.5,0.2-5.1,0.4-7.7,0.5c-1.9,0.1-2.8,0.8-2.7,3
					c0.9,20.3,1.8,40.6,2.6,61c0.2,5.3,0,10.7,0.3,16c0.1,2.8-0.9,4.7-3.1,6.2c-7.2,5-14.9,9-23.4,11.4c-0.4,0.1-0.7,0.4-1.1,0.5
					C290.1,186.1,289.4,186.1,288.8,186.1z"/>
				<path class="st0" d="M878.5,117c-1.2,1.1-2,1.7-2.6,2.3c-0.6,0.6-1.1,1.3-1.6,2c-12.1,17.3-10.2,10.9-7.5,33.5
					c0.6,4.6,0.6,5.2-3.8,6.6c-4.9,1.6-10,2.7-15.1,3.9c-2.4,0.6-3.6-0.2-3.3-3c1.3-10.6,2.6-21.1,3.6-31.7
					c0.5-5.1,0.7-10.2,0.7-15.3c-0.3-26.6-0.8-53.3-1.3-79.9c-0.1-6.5-1.2-12.6-4.7-18.3c-2.7-4.4-4.5-9.3-7-14.8
					c2.2,0.1,3.3,0,4.4,0.2c8.8,2.5,17.2,6,25,11c2.6,1.7,3.8,3.8,3.6,7.1c-1.6,18.2-3.2,36.3-4.2,54.5c-0.7,13-0.4,26-0.5,39
					c0,0.4,0.1,0.8,0.3,1.9c1-1,1.8-1.6,2.3-2.4c4.9-7.3,9.6-14.6,14.5-21.8c2.3-3.4,2.5-6.6,0.7-10.2c-0.6-1.1-1.1-2.3-1.6-3.5
					c-2.5-5.2-2.4-5.7,2.9-7.6c9.6-3.6,19.5-6.1,29.7-6.9c0.7-0.1,1.5,0,2.2,0c0.2,0,0.3,0.3,0.8,0.7c-1.2,1.5-2.5,3.1-3.6,4.6
					c-6.9,9.1-13.7,18.2-20.7,27.2c-2.4,3.1-3,6.1-1.3,9.7c5.1,11,10.1,22,15.1,33.1c2.1,4.7,5.9,7.6,10.4,9.9
					c5,2.7,5.2,3.4,0.8,7.1c-4.7,3.9-9.8,7.5-15.1,10.6c-4.4,2.6-5.6,2-7.3-2.9c-4-11.9-7.8-23.8-11.7-35.8
					C881.4,124.6,880,121.1,878.5,117z"/>
				<path class="st0" d="M585.8,1.4c2.8,0.6,5,0.8,7,1.7c7.4,3.3,14.7,6.7,21.9,10.2c2.7,1.3,3.7,3.6,3.4,6.8
					c-1.5,18.2-3.2,36.3-4.2,54.5c-0.7,12.9-0.4,25.8-0.5,38.7c0,0.6,0.2,1.2,0.4,2.5c1.1-1.1,1.8-1.7,2.2-2.4
					c5-7.4,9.8-15,14.8-22.4c2-2.9,2.3-5.8,0.7-9c-1-2-1.8-4.1-2.7-6.1c-1.2-2.4-0.8-4.2,1.9-4.9c8.4-2.4,16.7-4.8,25.1-6.9
					c2.9-0.7,6-0.7,9-1.1c0.1,0.3,0.3,0.6,0.4,0.9c-0.5,0.7-0.9,1.5-1.5,2.2c-7.6,10-15.2,20-22.8,30c-2.3,3-2.9,5.9-1.3,9.4
					c5.1,11,10,22.1,15,33.1c1.9,4.2,5,7.4,9.2,9.3c1.2,0.6,2.4,1.4,3.6,2.1c1.6,1,2,2.1,0.6,3.6c-5.3,5.6-11.4,10.2-18.5,13.3
					c-2.8,1.2-4.6,0.4-5.6-2.6c-4-12.2-8-24.4-12-36.6c-1.2-3.6-2.5-7.1-4-11.1c-1.1,0.8-2,1.2-2.4,1.8c-3.6,5-7.7,9.8-10.3,15.3
					c-1.5,3.2-0.6,7.6-0.4,11.5c0.2,3.4,0.9,6.8,1.5,10.1c0.4,2.5-0.2,4.3-2.7,5c-5.6,1.6-11.3,3.1-16.9,4.5c-2.4,0.6-3-0.7-2.8-2.9
					c1-8.8,2.1-17.6,2.9-26.4c0.7-7,1.4-14,1.4-21c-0.2-26.6-0.8-53.3-1.2-79.9c-0.1-6.4-1.2-12.4-4.7-18c-2.1-3.4-3.6-7.2-5.3-10.9
					C586.5,4.7,586.3,3.4,585.8,1.4z"/>
				<path class="st0" d="M767.1,90c0.4-6.2-2.1-9.8-6.7-12.9c-11-7.2-23.4-9.8-36.3-10.3c-2.7-0.1-4.8,0.7-6.3,2.9
					c-0.6,0.9-0.9,2-1.4,3.1c0.9,0.4,1.8,0.9,2.8,1.1c7.5,1.5,14.6,3.9,20.9,8.2c5.5,3.8,5.5,5.3,0.8,9.7c-0.7,0.7-1.4,1.3-2.2,1.9
					c-9.2,7.2-18.4,14.5-27.7,21.6c-2.5,1.9-4.5,4.1-4.6,7.3c-0.2,5.5-0.1,11,0,16.6c0.1,11.3,7.1,18.3,15.4,24.3
					c4.1,2.9,6.1,2.7,9.5-0.9c5-5.4,9.5-11.1,14.3-16.8c0.6-0.7,1.2-1.5,1.8-2.3c0.9,4.6,2.1,8.5,6.1,11c3.6,2.3,7,4.8,11.9,5.1
					c0-1.4,0-2.5,0-3.5c-0.1-5.5-0.5-11.1-0.4-16.6C765.7,123,766.1,106.4,767.1,90z M746.2,126.8c-0.2,2.1-1.5,4.2-2.7,6
					c-2.6,3.6-5.3,7.2-8.3,10.5c-2.3,2.5-3.8,2.3-5.8-0.3c-3.9-5.3-6-11.2-6.5-17.7c-0.1-0.9,0.1-2,0.6-2.8
					c5-9.1,12.7-15.5,20.9-21.3c0.4,0.1,0.8,0.3,1.2,0.4c0.4,2.6,1.1,5.1,1.1,7.7C746.9,115.1,746.8,121,746.2,126.8z"/>
				<path class="st0" d="M398,0.4c2.2,0.6,4.5,0.9,6.5,1.9c7.2,3.5,14.2,7.2,21.4,10.7c3.2,1.6,4.2,4.1,4,7.6
					c-1.3,23.9-2.2,47.9-3.6,71.8c-0.8,14.2,0.6,28.3,1.8,42.4c1,11.2,2.1,22.5,3.2,33.7c0.2,1.9-0.5,2.8-2.5,2.7
					c-6.8-0.5-13.2-2.2-19.1-5.6c-2.3-1.3-3-3.3-3-5.9c0.3-11.7,0.6-23.4,1-35.1c0.6-18.2,2-36.4,1.9-54.6c-0.1-15-1.6-30-2.7-44.9
					c-0.2-2.3-1-4.5-2-6.6c-2.6-5.7-5.3-11.2-8-16.9C397.2,1.2,397.6,0.8,398,0.4z"/>
				<path class="st0" d="M336.3,117.4c0.7-8.1,1.1-16.1,2.1-24.2c0.2-1.9,1.6-4.1,3.1-5.3c10.4-8.2,21.9-14.7,34.3-19.2
					c5.3-1.9,6.4-1.5,9.4,3.4c5.7,9.4,10.4,19.2,13,30c0.6,2.5-0.2,4-2.2,5.3c-11,6.9-21.9,13.9-32.9,20.8c-1.8,1.1-3.6,2.3-5.3,3.5
					c-3.8,2.7-3.9,3.3-0.9,7c0.5,0.6,0.9,1.2,1.5,1.7c5.6,6,8.1,6.8,15.2,2.7c6.6-3.8,12.7-8.4,18.9-12.9c1.6-1.2,2.9-2,4.8-0.9
					c2.1,1.3,1.1,3,0.5,4.5c-4.2,10-9.5,19.2-16.4,27.6c-2.9,3.5-6.4,4.5-10.5,3.4c-12.1-3.4-22.2-9.9-30.5-19.4
					c-3.3-3.8-3.1-8.5-3.4-13c-0.3-5-0.1-10,0-15C336.8,117.5,336.5,117.4,336.3,117.4z M352.5,123.6c1.1-0.3,1.9-0.3,2.6-0.7
					c7.7-4.1,14.6-9.1,19.8-16.2c1.2-1.7,2.1-4.5,1.7-6.5c-1-5.4-2.4-10.7-4.3-15.9c-1.7-4.5-2.9-4.5-6.1-0.9
					c-6,6.7-9.7,14.7-11.9,23.3C352.8,112.2,351.8,117.6,352.5,123.6z"/>
				<path class="st0" d="M442.7,24.4c1.1,0.2,2.3,0.2,3.4,0.5c7.7,2.5,14.9,6.1,21.5,11c3,2.2,4.4,4.8,3.8,8.7
					c-1.3,8.7-2.2,17.5-3.5,26.3c-0.4,2.7,0.4,3.7,3.2,3.4c3-0.3,6-0.2,8.9-0.3c1,0,2,0.2,3.5,0.3c-2.3,4.8-4.2,9.1-6.5,13.2
					c-0.4,0.8-2.2,1-3.4,1.1c-8.9,0.7-7.4-0.6-7.8,7.8c-0.8,17.4-0.1,34.7,2.2,52c0.4,3.4,1.8,5.8,4.9,7.3c3.1,1.5,6.2,3.1,9.5,4.7
					c-0.5,0.8-0.7,1.5-1.2,1.8c-5.6,4.3-11.2,8.7-17,12.9c-2.3,1.7-4.6,1.3-6.4-1.1c-3.5-4.7-7-9.3-10.2-14.2
					c-1-1.6-1.4-3.8-1.3-5.8c1.1-16.7,2.4-33.4,3.6-50c0.3-4.3,0.8-8.7,1.2-13.3c-3.4,0-6.4,0-10.2,0c0.6-5.3,1-10.2,1.8-15
					c0.1-0.6,1.9-1.4,3-1.4c6.7-0.2,6,1.3,6.7-6.9c0.7-8.7-2-16.5-5-24.4c-2.2-5.8-3.8-11.9-5.7-17.8
					C442,24.9,442.3,24.6,442.7,24.4z"/>
				<path class="st0" d="M668.5,24.8c2.3,0.3,3.5,0.2,4.5,0.6c7.8,2.6,15.1,6.2,21.8,11.1c2.9,2.2,4.2,4.7,3.6,8.5
					c-1.3,8.6-2.3,17.3-3.4,26c-0.5,3.9-0.4,3.9,3.6,3.8c3.8,0,7.6,0,12,0c-2.4,4.9-4.4,9.3-6.7,13.5c-0.4,0.7-2.2,0.8-3.5,0.9
					c-8.8,0.7-7.2-0.4-7.5,7.4c-0.8,17.7-0.2,35.4,2.2,53c0.4,3,1.8,5.2,4.4,6.5c3.2,1.6,6.4,3.2,9.8,4.9c-0.5,0.8-0.8,1.6-1.3,2
					c-5.5,4.3-11.1,8.6-16.7,12.7c-2.3,1.7-4.6,1.4-6.4-1c-3.5-4.8-7.2-9.5-10.4-14.5c-1-1.5-1.3-3.9-1.2-5.8
					c1.1-16.7,2.4-33.4,3.7-50c0.3-4.3,0.7-8.6,1.1-13.1c-2.9,0-5.3,0.1-7.7-0.1c-0.7-0.1-2-1.2-2-1.9c0.1-3.9,0.6-7.8,0.9-11.8
					c0.2-2.1,1.2-2.8,3.3-2.9c6.6-0.1,6.2-0.2,6.8-6.7c0.8-8.7-1.9-16.5-4.9-24.4C672.3,37.7,670.7,31.7,668.5,24.8z"/>
				<path class="st0" d="M542.9,113.4c1.1,8.8,2.1,17.5,3.3,26.3c0.6,4.4,1.4,4.8,5.9,4.9c8.3,0.1,14.9-3.8,21-8.9
					c3.1-2.6,5.7-5.7,8.8-8.4c0.9-0.8,2.9-1.2,3.7-0.7c0.9,0.5,1.6,2.5,1.3,3.6c-3.7,12.9-11,23.7-20.8,32.7
					c-1.5,1.3-4.7,1.6-6.8,1.2c-4.9-0.9-9.7-2.5-14.4-3.9c-4.2-1.3-6.6-4.4-8.4-8.2c-5.8-12.6-9.2-25.8-11.5-39.4
					c-0.2-1.2-0.4-2.3-0.6-3.5c-1.3-6.8,0.8-12.4,5.6-17.4c8-8.4,16.8-15.6,26.9-21.4c4.9-2.9,9.8-3.3,14.8-0.6
					c4.1,2.2,8.2,4.5,12.2,6.8c2.2,1.3,3,3.2,2.2,5.7c-2.5,7.6-4.9,15.1-7.4,22.7c-0.7,2-2.2,3.1-4.4,2.9c-1.9-0.1-3-0.8-3.4-3
					c-1.1-6.1-2.2-12.2-3.8-18.1c-2.2-8.2-4.2-8.7-10-2.6c-3.9,4.2-7.3,8.9-10.9,13.4C542.6,102.2,543.3,107.8,542.9,113.4z"/>
				<path class="st0" d="M793.6,114c1.1,8.8,2.1,17.5,3.3,26.3c0.6,4.4,1.4,4.8,5.9,4.9c8.3,0.1,15-3.7,21-8.9
					c3.1-2.6,5.7-5.7,8.8-8.4c0.9-0.8,2.8-1.2,3.7-0.8c0.9,0.5,1.7,2.5,1.4,3.5c-3.7,12.9-11,23.7-20.8,32.7
					c-1.5,1.3-4.7,1.6-6.8,1.2c-4.9-0.9-9.7-2.5-14.4-3.9c-4.2-1.3-6.6-4.4-8.4-8.2c-5.8-12.6-9.2-25.8-11.5-39.4
					c-0.2-1.2-0.4-2.3-0.6-3.5c-1.3-6.8,0.8-12.4,5.5-17.4c8-8.4,16.8-15.6,26.9-21.5c4.9-2.9,9.8-3.3,14.8-0.6
					c4.1,2.2,8.2,4.5,12.2,6.8c2.2,1.3,3.1,3.1,2.2,5.7c-2.5,7.6-4.9,15.1-7.4,22.7c-0.7,2-2.2,3.1-4.4,3c-1.9-0.1-3.1-0.8-3.4-3
					c-1.1-6-2.1-11.9-3.7-17.8c-2.3-8.6-4.3-9.1-10.2-2.7c-3.8,4.1-7.1,8.7-10.6,13.2C793.4,102.8,794.1,108.4,793.6,114z"/>
				<path class="st0" d="M495.6,164.9c-0.3,0-0.6,0-1,0.1c-5.5,0.3-5.9-0.2-4.7-5.6c1.1-5.1,2.6-10.1,3.5-15.2
					c0.9-5.4,1.6-10.9,1.7-16.4c0.2-9.3-0.3-18.5-0.3-27.8c0-4.7-1.2-9-3.8-13c-1.3-1.9-2.3-4.1-3.5-6.1c-1.4-2.2-0.7-3.7,1.6-4.4
					c8-2.2,15.9-4.5,24-6.3c3.4-0.8,3.8-0.1,3.4,3.6c-1.2,14.4-2.3,28.9-3.8,43.3c-1.4,12.6,0.3,24.8,2.8,37.1
					c1.5,7.2,1.4,7.4-5.7,8.8c-4.7,0.9-9.4,1.5-14.2,2.2C495.7,165.1,495.6,165,495.6,164.9z"/>
				<path class="st0" d="M497.8,53.7c-1.4-1.1-3.4-2-3.7-3.3c-1-4.8-1.6-9.8-2.1-14.7c-0.1-0.7,0.9-1.8,1.6-2.1
					c5.3-2.2,10.7-4.4,16.2-6.4c1.9-0.7,2.8,0.2,2.7,2.2c0,1.3,0.1,2.6,0,3.8c-0.2,3.9,0.3,7.4,3.1,10.6c2.4,2.8,2,3.8-1.4,5
					C509,50.5,503.7,51.9,497.8,53.7z"/>
				<path class="st0" d="M194.6,134.7c-3.8,6.5-7.2,12.5-10.8,18.4c-2.1,3.3-4.6,6.4-6.9,9.6c-1.4,1.9-3.2,2-5,0.5
					c-7-5.6-12.9-12.2-16.9-20.1c-1.5-3-1.4-7.1-1.4-10.7c-0.2-11.3-0.3-22.6,0.1-33.9c0.3-7.4-0.8-14.3-3.8-21.1
					c-2-4.4-3-9.2-4.8-14.8c2.3,0.5,3.9,0.4,5,1c7,3.9,14,8,21,12.1c3.2,1.9,3.9,4.7,3.4,8.2c-1.7,11.1-3.2,22.1-4.8,33.2
					c-0.2,1.3-0.1,2.6-0.5,3.8c-2.4,7.7,1.8,12.8,6.9,17.5c1.6,1.4,3,1.4,4.3-0.2c6.7-8.4,12.1-17.6,14-28.3
					c0.9-4.7-0.1-9.8-0.2-14.7c-0.1-5.5,0.1-11.1-0.1-16.6c-0.1-2.5,0.9-4.3,3.2-4.9c5.4-1.5,10.9-2.9,16.3-4.2
					c2.4-0.6,3.2,0.6,2.8,3c-1.8,13.4-3.6,26.8-5.3,40.2c-0.7,5.9-0.9,11.9-1.7,17.8c-0.7,4.8,1.4,8.1,4.8,11.1
					c5.5,4.7,5.6,4.9,1.1,10.7c-2.8,3.6-5.9,6.9-9,10.3c-1.6,1.7-3.3,1.8-4.8-0.1c-4.4-5.4-8.5-10.9-7.2-18.7
					C195,141.1,194.6,138.2,194.6,134.7z"/>
				<path class="st0" d="M220.8,64.9c1.6,0,2.7-0.2,3.7,0c7,2.1,14,4.1,20.9,6.5c1.2,0.4,2.4,2.8,2.4,4.3c0.3,7.4,0.2,14.9,0.3,22.4
					c0,1.1,0,2.2,0,3.3c0.3,0.1,0.7,0.2,1,0.2c0.8-1.8,1.6-3.5,2.3-5.3c5-11.1,9.9-22.2,18.1-31.4c1.3-1.5,2.8-3,4.3-4.3
					c3.2-2.8,5.2-2.7,7,1.1c2.3,4.9,4,10.2,5.5,15.5c0.8,2.8,0.7,5.9,0.8,8.9c0.1,1.2-0.4,2.4-0.7,4.3c-2.7-1.6-5-2.8-7.2-4.2
					c-9.2-5.6-10.4-5.4-14.8,4.3c-6.3,14-11.7,28.3-13.9,43.6c-0.8,5.6,0.4,11.4,0.9,17.1c0.7,8.3,0.7,8.8-7,11.9
					c-3.5,1.4-7.2,2.5-10.9,3.5c-3.8,1-4.6,0.5-4.4-3.3c0.5-11.3,1.1-22.5,1.8-33.8c0.7-12.3,1.5-24.7,2.2-37
					c0.1-1.4-0.5-2.9-1.1-4.2c-3-6-6.2-11.9-9.2-17.9C222,69,221.6,67.2,220.8,64.9z"/>
				<path class="st0" d="M173.9,54.8c-3.5,0.3-6.6,0.6-9.7,0.7c-0.6,0-1.5-0.7-1.9-1.3c-2-3.1-3.8-6.3-5.7-9.5
					c-1.1-1.9-0.6-3.5,1-4.8c1.4-1.1,2.7-2.5,4.3-3.2c2.5-1.1,6.2-3.4,7.6-2.4c3.3,2.3,5.7,6,8.1,9.4c0.4,0.6-0.7,2.8-1.7,3.7
					C173.7,49.3,172.5,51.3,173.9,54.8z"/>
				<path class="st0" d="M210.5,46c-1.3,1.8-2.6,3.9-4.3,5.7c-4.9,5.2-11,4.7-14.8-1.3c-1.3-2-3.2-4.9-2.6-6.4
					c1.4-3.2,4.3-5.9,6.8-8.6c0.4-0.4,2.7,0.1,3.4,0.8c1.8,2.1,3.6,3,6.4,2.2c0.8-0.2,2.4,0.7,2.9,1.5
					C209.3,41.6,209.7,43.5,210.5,46z"/>
			</g>
		</g>
	</g>
	<g>
		<path class="st0" d="M646.2,215.3l3.2-16.2l5.2,11.7l5.4-11.7l2.9,16.2h-2.3l-1.5-9.1l-4.5,9.8l-4.3-9.8l-1.6,9.1H646.2z"/>
		<path class="st0" d="M680.1,211.6h-6.5l-1.7,3.7h-2.5l7.5-16l7.2,16h-2.5L680.1,211.6z M679.1,209.5l-2.2-5.1l-2.3,5.1H679.1z"/>
		<path class="st0" d="M695.8,200.2v9.8c0,1.2-0.1,2-0.2,2.6c-0.2,0.7-0.4,1.2-0.8,1.7c-0.8,0.9-1.8,1.3-3,1.3c-1,0-1.8-0.2-2.7-0.7
			l1.1-2c0.6,0.4,1.1,0.6,1.6,0.6c0.7,0,1.1-0.3,1.4-0.8c0.3-0.5,0.4-1.4,0.4-2.7v-9.7H695.8z"/>
		<path class="st0" d="M713,211.6h-6.5l-1.7,3.7h-2.5l7.5-16l7.2,16h-2.5L713,211.6z M712,209.5l-2.2-5.1l-2.3,5.1H712z"/>
		<path class="st0" d="M732.6,202.5l-1.8,1.1c-0.3-0.6-0.7-1-1-1.2c-0.3-0.2-0.7-0.3-1.3-0.3c-0.6,0-1.2,0.2-1.6,0.5
			c-0.4,0.4-0.6,0.8-0.6,1.3c0,0.7,0.5,1.3,1.6,1.8l1.5,0.6c1.2,0.5,2.1,1.1,2.7,1.8c0.6,0.7,0.8,1.6,0.8,2.6c0,1.4-0.5,2.5-1.4,3.4
			c-0.9,0.9-2.1,1.4-3.5,1.4c-1.3,0-2.4-0.4-3.2-1.2c-0.8-0.8-1.4-1.9-1.6-3.3l2.3-0.5c0.1,0.9,0.3,1.5,0.5,1.8c0.5,0.7,1.2,1,2.1,1
			c0.7,0,1.3-0.2,1.8-0.7c0.5-0.5,0.7-1.1,0.7-1.8c0-0.3,0-0.6-0.1-0.8c-0.1-0.2-0.2-0.5-0.4-0.7s-0.4-0.4-0.7-0.6
			c-0.3-0.2-0.6-0.3-1-0.5l-1.5-0.6c-2.1-0.9-3.1-2.1-3.1-3.8c0-1.1,0.4-2.1,1.3-2.8c0.9-0.8,1.9-1.2,3.2-1.2
			C730.3,199.9,731.7,200.8,732.6,202.5z"/>
		<path class="st0" d="M754.6,200.2v12.9h4.4v2.1h-6.7v-15.1H754.6z"/>
		<path class="st0" d="M774.7,202.4h-6v3.6h5.9v2.1h-5.9v5h6v2.1h-8.3v-15.1h8.3V202.4z"/>
		<path class="st0" d="M788,208.9l4.7,6.4h-2.8l-4.3-6.2h-0.4v6.2h-2.3v-15.1h2.7c2,0,3.4,0.4,4.3,1.1c1,0.8,1.5,1.9,1.5,3.3
			c0,1.1-0.3,2-0.9,2.8S789,208.7,788,208.9z M785.2,207.2h0.7c2.2,0,3.2-0.8,3.2-2.5c0-1.5-1-2.3-3.1-2.3h-0.8V207.2z"/>
		<path class="st0" d="M800.2,215.3v-16.1l11,11.5v-10.5h2.3v16l-11-11.5v10.6H800.2z"/>
		<path class="st0" d="M830.8,202.5l-1.8,1.1c-0.3-0.6-0.7-1-1-1.2c-0.3-0.2-0.7-0.3-1.3-0.3c-0.6,0-1.2,0.2-1.6,0.5
			c-0.4,0.4-0.6,0.8-0.6,1.3c0,0.7,0.5,1.3,1.6,1.8l1.5,0.6c1.2,0.5,2.1,1.1,2.7,1.8c0.6,0.7,0.8,1.6,0.8,2.6c0,1.4-0.5,2.5-1.4,3.4
			c-0.9,0.9-2.1,1.4-3.5,1.4c-1.3,0-2.4-0.4-3.2-1.2c-0.8-0.8-1.4-1.9-1.6-3.3l2.3-0.5c0.1,0.9,0.3,1.5,0.5,1.8c0.5,0.7,1.2,1,2.1,1
			c0.7,0,1.3-0.2,1.8-0.7c0.5-0.5,0.7-1.1,0.7-1.8c0-0.3,0-0.6-0.1-0.8c-0.1-0.2-0.2-0.5-0.4-0.7s-0.4-0.4-0.7-0.6
			c-0.3-0.2-0.6-0.3-1-0.5l-1.5-0.6c-2.1-0.9-3.1-2.1-3.1-3.8c0-1.1,0.4-2.1,1.3-2.8c0.9-0.8,1.9-1.2,3.2-1.2
			C828.4,199.9,829.8,200.8,830.8,202.5z"/>
		<path class="st0" d="M841.4,209.2v6.1h-2.3v-15.1h2.6c1.3,0,2.2,0.1,2.9,0.3c0.7,0.2,1.2,0.5,1.7,1c0.9,0.8,1.3,1.9,1.3,3.2
			c0,1.4-0.5,2.5-1.4,3.3s-2.2,1.2-3.7,1.2H841.4z M841.4,207.1h0.8c2.1,0,3.1-0.8,3.1-2.4c0-1.6-1.1-2.3-3.2-2.3h-0.8V207.1z"/>
		<path class="st0" d="M862.9,211.6h-6.5l-1.7,3.7h-2.5l7.5-16l7.2,16h-2.5L862.9,211.6z M861.9,209.5l-2.2-5.1l-2.3,5.1H861.9z"/>
		<path class="st0" d="M882.5,202.5l-1.8,1.1c-0.3-0.6-0.7-1-1-1.2c-0.3-0.2-0.7-0.3-1.3-0.3c-0.6,0-1.2,0.2-1.6,0.5
			c-0.4,0.4-0.6,0.8-0.6,1.3c0,0.7,0.5,1.3,1.6,1.8l1.5,0.6c1.2,0.5,2.1,1.1,2.7,1.8c0.6,0.7,0.8,1.6,0.8,2.6c0,1.4-0.5,2.5-1.4,3.4
			c-0.9,0.9-2.1,1.4-3.5,1.4c-1.3,0-2.4-0.4-3.2-1.2c-0.8-0.8-1.4-1.9-1.6-3.3l2.3-0.5c0.1,0.9,0.3,1.5,0.5,1.8c0.5,0.7,1.2,1,2.1,1
			c0.7,0,1.3-0.2,1.8-0.7c0.5-0.5,0.7-1.1,0.7-1.8c0-0.3,0-0.6-0.1-0.8c-0.1-0.2-0.2-0.5-0.4-0.7s-0.4-0.4-0.7-0.6
			c-0.3-0.2-0.6-0.3-1-0.5l-1.5-0.6c-2.1-0.9-3.1-2.1-3.1-3.8c0-1.1,0.4-2.1,1.3-2.8c0.9-0.8,1.9-1.2,3.2-1.2
			C880.2,199.9,881.6,200.8,882.5,202.5z"/>
		<path class="st0" d="M899.4,202.5l-1.8,1.1c-0.3-0.6-0.7-1-1-1.2c-0.3-0.2-0.7-0.3-1.3-0.3c-0.6,0-1.2,0.2-1.6,0.5
			c-0.4,0.4-0.6,0.8-0.6,1.3c0,0.7,0.5,1.3,1.6,1.8l1.5,0.6c1.2,0.5,2.1,1.1,2.7,1.8c0.6,0.7,0.8,1.6,0.8,2.6c0,1.4-0.5,2.5-1.4,3.4
			c-0.9,0.9-2.1,1.4-3.5,1.4c-1.3,0-2.4-0.4-3.2-1.2c-0.8-0.8-1.4-1.9-1.6-3.3l2.3-0.5c0.1,0.9,0.3,1.5,0.5,1.8c0.5,0.7,1.2,1,2.1,1
			c0.7,0,1.3-0.2,1.8-0.7c0.5-0.5,0.7-1.1,0.7-1.8c0-0.3,0-0.6-0.1-0.8c-0.1-0.2-0.2-0.5-0.4-0.7s-0.4-0.4-0.7-0.6
			c-0.3-0.2-0.6-0.3-1-0.5l-1.5-0.6c-2.1-0.9-3.1-2.1-3.1-3.8c0-1.1,0.4-2.1,1.3-2.8c0.9-0.8,1.9-1.2,3.2-1.2
			C897.1,199.9,898.4,200.8,899.4,202.5z"/>
	</g>
</g>
</svg>
